# xmcd
#
# Track frame offsets: 
#        150
#        11850
#        23490
#        36610
#        47997
#        61230
#        74240
#        88075
#        101282
#        116407
#        131047
#        145537
#        159037
#        172510
#        183450
#        196795
#        212495
#        226795
#        240082
#        254020
#
# Disc length: 3556 seconds
#
# Revision: 5
# Processed by: cddbd v1.5.2PL0 Copyright (c) Steve Scherf et al.
# Submitted via: ExactAudioCopy v1.0b3
#
DISCID=040de214
DTITLE=Django Reinhardt - The Gold Collection [CD 1)
DYEAR=1997
DGENRE=Swing
TTITLE0=Dinah
TTITLE1=Tiger Rag
TTITLE2=Lady Be Good
TTITLE3=I Saw Stars
TTITLE4=Confessin'
TTITLE5=Blue Drag
TTITLE6=Swanee River
TTITLE7=Ton Doux Sourire
TTITLE8=Ultrafox
TTITLE9=Clouds
TTITLE10=Believe It, Beloved
TTITLE11=Chasing Shadows
TTITLE12=I've Had My Moments
TTITLE13=Some Of These Days
TTITLE14=Djangology
TTITLE15=St. Louis Blues
TTITLE16=Limehouse Blues
TTITLE17=I Got Rhythm
TTITLE18=I've Found A New Baby
TTITLE19=It Was So Beautiful
EXTD=Songs 1934-1935 CD01
EXTT0=
EXTT1=
EXTT2=
EXTT3=
EXTT4=
EXTT5=
EXTT6=
EXTT7=
EXTT8=
EXTT9=
EXTT10=
EXTT11=
EXTT12=
EXTT13=
EXTT14=
EXTT15=
EXTT16=
EXTT17=
EXTT18=
EXTT19=
PLAYORDER=
